# xmcd
#
# Track frame offsets: 
#        150
#        15900
#        32700
#        47100
#        62775
#        75075
#        97725
#        108525
#        125700
#        136050
#        153010
#        167410
#        183910
#
# Disc length: 2644 seconds
#
# Revision: 0
# Processed by: cddbd v1.5.2PL0 Copyright (c) Steve Scherf et al.
# Submitted via: ExactAudioCopy v0.95b4
#
DISCID=8d0a520d
DTITLE=Noel Cassidy - River Road 2006
DYEAR=2006
DGENRE=Country
TTITLE0=River Road
TTITLE1=Tramp On The Street
TTITLE2=Irma Jackson
TTITLE3=Yours Eternally
TTITLE4=Amelia Earheart
TTITLE5=Out To California
TTITLE6=Arms Full Of Empty
TTITLE7=Wild Colonial Boy
TTITLE8=Try A Little Kindness
TTITLE9=Sing Me Back Home
TTITLE10=Coat Of Many Colours
TTITLE11=Mull Of Kintire
TTITLE12=Smoke Along The Track
EXTD=
EXTT0=
EXTT1=
EXTT2=
EXTT3=
EXTT4=
EXTT5=
EXTT6=
EXTT7=
EXTT8=
EXTT9=
EXTT10=
EXTT11=
EXTT12=
PLAYORDER=
